<svg width="512" height="512" viewBox="0 0 512 512" fill="none" xmlns="http://www.w3.org/2000/svg">
<path d="M441.874 67.7435C394.331 -0.302696 300.434 -20.4718 232.542 22.7844L113.307 98.7785C80.737 119.269 58.3035 152.529 51.5072 190.403C45.8195 221.954 50.8187 254.501 65.7134 282.891C55.5072 298.373 48.546 315.764 45.2508 334.013C38.3888 372.614 47.3649 412.352 70.1527 444.256C117.706 512.309 211.603 532.469 279.485 489.215L398.72 413.221C431.292 392.733 453.726 359.472 460.519 321.597C466.206 290.046 461.211 257.499 446.324 229.106C456.527 213.624 463.486 196.234 466.778 177.987C473.644 139.385 464.668 99.6455 441.876 67.7435" fill="#FF3E00"/>
<path d="M220.882 450.729C182.437 460.726 141.838 445.677 119.197 413.038C105.486 393.847 100.085 369.942 104.213 346.721C104.905 342.947 105.858 339.226 107.064 335.583L109.31 328.734L115.42 333.222C129.532 343.591 145.311 351.475 162.076 356.533L166.509 357.878L166.101 362.302C165.559 368.596 167.264 374.879 170.912 380.036C177.725 389.868 189.949 394.405 201.527 391.399C204.119 390.707 206.59 389.621 208.853 388.18L328.127 312.172C334.028 308.456 338.094 302.431 339.333 295.568C340.569 288.569 338.942 281.367 334.817 275.58C327.999 265.746 315.773 261.207 304.19 264.21C301.601 264.903 299.134 265.988 296.873 267.427L251.359 296.441C243.875 301.2 235.708 304.786 227.14 307.077C188.695 317.073 148.097 302.024 125.456 269.385C111.745 250.195 106.344 226.29 110.473 203.069C114.56 180.287 128.056 160.282 147.649 147.961L266.912 71.9466C274.4 67.1802 282.573 63.589 291.148 61.298C329.593 51.3024 370.191 66.3511 392.832 98.9896C406.542 118.18 411.943 142.085 407.815 165.306C407.12 169.08 406.167 172.801 404.965 176.444L402.718 183.293L396.611 178.812C382.5 168.437 366.72 160.55 349.952 155.491L345.519 154.145L345.927 149.721C346.464 143.428 344.76 137.147 341.117 131.988C334.303 122.156 322.079 117.62 310.501 120.625C307.909 121.318 305.438 122.403 303.175 123.844L183.901 199.855C178.001 203.568 173.937 209.593 172.704 216.455C171.46 223.453 173.084 230.658 177.211 236.445C184.029 246.279 196.255 250.818 207.839 247.815C210.43 247.121 212.9 246.035 215.164 244.595L260.672 215.593C268.153 210.828 276.32 207.238 284.889 204.948C323.334 194.952 363.932 210.001 386.573 242.64C400.284 261.83 405.685 285.735 401.556 308.956C397.466 331.739 383.971 351.746 364.379 364.073L245.116 440.081C237.628 444.847 229.455 448.438 220.88 450.729" fill="white"/>
</svg>
